FILE "Der Langrisser FX (1996)(NEC Home Electronics)(JP)[FXNHE618].img" BINARY
  TRACK 01 AUDIO
    INDEX 01 00:00:00
  TRACK 02 MODE1/2352
    PREGAP 00:03:00
    INDEX 01 00:23:21
  TRACK 03 AUDIO
    PREGAP 00:02:00
    INDEX 01 71:43:27
